<?xml version="1.0" encoding="UTF-8" standalone="no"?>
<svg version="1.1" width="106" height="103" xmlns="http://www.w3.org/2000/svg" xmlns:svg="http://www.w3.org/2000/svg">
  <path
     d="M0 0 C0.80907806 -0.00700928 1.61815613 -0.01401855 2.45175171 -0.02124023 C5.10751382 -0.03874446 7.76219713 -0.02722491 10.41796875 -0.01367188 C12.27449751 -0.01636898 14.13102489 -0.02025321 15.98754883 -0.02526855 C19.87106833 -0.03115334 23.75421884 -0.02263363 27.63769531 -0.00390625 C32.60426711 0.01888272 37.56997417 0.00575416 42.53651428 -0.01819611 C46.36794496 -0.03268172 50.19917217 -0.02803544 54.03060913 -0.01768494 C55.8613597 -0.01502528 57.69212901 -0.0182605 59.52285767 -0.02760315 C62.08604546 -0.03781453 64.64785202 -0.02220475 67.2109375 0 C67.96023529 -0.00809692 68.70953308 -0.01619385 69.48153687 -0.02453613 C74.66727 0.05827825 78.60421747 1.09675287 82.60546875 4.51757812 C86.48946428 9.09316069 87.18933494 13.73201004 87.12304688 19.63671875 C87.13005615 20.4165361 87.13706543 21.19635345 87.14428711 21.99980164 C87.16178385 24.55818084 87.15027468 27.11543916 87.13671875 29.67382812 C87.13941607 31.46309622 87.14330049 33.25236288 87.14831543 35.04162598 C87.15419919 38.78391534 87.1456839 42.52582171 87.12695312 46.26806641 C87.10416411 51.05304707 87.11729324 55.83713017 87.14124298 60.62207794 C87.15573143 64.31454165 87.15108105 68.00679429 87.14073181 71.69926453 C87.13807294 73.46302905 87.14130463 75.22681304 87.15065002 76.99055481 C87.16086622 79.46036168 87.14524543 81.92873665 87.12304688 84.3984375 C87.1311438 85.11968307 87.13924072 85.84092865 87.14758301 86.58403015 C87.06148229 91.78286051 85.94914134 95.57852878 82.60546875 99.51757812 C77.89856784 103.54169068 73.21590414 104.10004601 67.2109375 104.03515625 C66.40185944 104.04216553 65.59278137 104.0491748 64.75918579 104.05639648 C62.10342368 104.07390071 59.44874037 104.06238116 56.79296875 104.04882812 C54.93643999 104.05152523 53.07991261 104.05540946 51.22338867 104.0604248 C47.33986917 104.06630959 43.45671866 104.05778988 39.57324219 104.0390625 C34.60667039 104.01627353 29.64096333 104.02940209 24.67442322 104.05335236 C20.84299254 104.06783797 17.01176533 104.06319169 13.18032837 104.05284119 C11.3495778 104.05018153 9.51880849 104.05341675 7.68807983 104.0627594 C5.12489204 104.07297078 2.56308548 104.057361 0 104.03515625 C-1.12394669 104.04730164 -1.12394669 104.04730164 -2.27059937 104.05969238 C-7.4563325 103.976878 -11.39327997 102.93840338 -15.39453125 99.51757812 C-19.27852678 94.94199556 -19.97839744 90.30314621 -19.91210938 84.3984375 C-19.91911865 83.61862015 -19.92612793 82.8388028 -19.93334961 82.03535461 C-19.95084635 79.47697541 -19.93933718 76.91971709 -19.92578125 74.36132812 C-19.92847857 72.57206003 -19.93236299 70.78279337 -19.93737793 68.99353027 C-19.94326169 65.25124091 -19.9347464 61.50933454 -19.91601562 57.76708984 C-19.89322661 52.98210918 -19.90635574 48.19802608 -19.93030548 43.41307831 C-19.94479393 39.7206146 -19.94014355 36.02836196 -19.92979431 32.33589172 C-19.92713544 30.5721272 -19.93036713 28.80834321 -19.93971252 27.04460144 C-19.94992872 24.57479457 -19.93430793 22.1064196 -19.91210938 19.63671875 C-19.9202063 18.91547318 -19.92830322 18.1942276 -19.93664551 17.4511261 C-19.85054479 12.25229574 -18.73820384 8.45662747 -15.39453125 4.51757812 C-10.68763034 0.49346557 -6.00496664 -0.06488976 0 0 Z "
     fill="#DE483A"
     transform="translate(19.39453125,-0.517578125)"
     id="path1" />
  <path
     d="M -0.33678474,41.571662 C -0.36742002,41.320093 44.550953,54.347139 44.550953,54.347139 v 6 L -0.33678474,73.571662 Z"
     fill="#fdf5f4"
     id="path2"/>
  <path
     d="M -0.33678474,47.673569 C -0.21353065,47.751027 33.67357,57.13297 33.67357,57.13297 l -34.12261632,9.214169 z"
     fill="#de4b3d"
     id="path3"/>
  <path
     d="M0 0 C11.88 0 23.76 0 36 0 C36 2.64 36 5.28 36 8 C24.12 8 12.24 8 0 8 C0 5.36 0 2.72 0 0 Z "
     fill="#FEFAFA"
     transform="translate(35,75)"
     id="path4" />
  <path
     d="M -0.67356948,29.898093 44.438693,42.34714 l -10e-7,5.765122 -45.11226148,-12.214169 z"
     fill="#fdf6f5"
     id="path5"/>
  <path
     d="M -0.58201635,19.264305 44.305722,30.92752 l 10e-7,6.21417 -44.88773935,-11.877385 z"
     fill="#fdf6f5"
     id="path5-6"/>
</svg>
